<svg version="1.1" xmlns="http://www.w3.org/2000/svg" xmlns:xlink="http://www.w3.org/1999/xlink" width="484" height="572"><defs/><g><g><path fill="#ffffff" stroke="none" paint-order="stroke fill markers" d=" M 14 10 L 470 10 Q 474 10 474 14 L 474 558 Q 474 562 470 562 L 14 562 Q 10 562 10 558 L 10 14 Q 10 10 14 10 Z"/></g><g><path fill="none" stroke="#000000" paint-order="fill stroke markers" d=" M 14 10 L 470 10 Q 474 10 474 14 L 474 558 Q 474 562 470 562 L 14 562 Q 10 562 10 558 L 10 14 Q 10 10 14 10 Z" stroke-miterlimit="10" stroke-dasharray=""/></g><g><path fill="none" stroke="#000000" paint-order="fill stroke markers" d=" M 10 30 L 474 30" stroke-miterlimit="10" stroke-dasharray=""/></g><g><path fill="none" stroke="#000000" paint-order="fill stroke markers" d=" M 458 20 C 458 16.6862912 460.6862912 14 464 14 C 467.3137088 14 470 16.6862912 470 20 C 470 23.3137088 467.3137088 26 464 26 C 460.6862912 26 458 23.3137088 458 20 Z" stroke-miterlimit="10" stroke-dasharray=""/></g><g><path fill="none" stroke="#000000" paint-order="fill stroke markers" d=" M 442 20 C 442 16.6862912 444.6862912 14 448 14 C 451.3137088 14 454 16.6862912 454 20 C 454 23.3137088 451.3137088 26 448 26 C 444.6862912 26 442 23.3137088 442 20 Z" stroke-miterlimit="10" stroke-dasharray=""/></g><g><path fill="none" stroke="#000000" paint-order="fill stroke markers" d=" M 20 14 L 430 14 Q 436 14 436 20 L 436 20 Q 436 26 430 26 L 20 26 Q 14 26 14 20 L 14 20 Q 14 14 20 14 Z" stroke-miterlimit="10" stroke-dasharray=""/></g><g><g><path fill="none" stroke="none"/><text fill="#000000" stroke="none" font-family="Arial" font-size="13px" font-style="normal" font-weight="normal" text-decoration="undefined" x="216" y="270.5" text-anchor="start" dominant-baseline="central" transform="matrix(1 0 0 1 -134 -206)">Nome</text></g></g><g><path fill="#ffffff" stroke="none" paint-order="stroke fill markers" d=" M 86 106 L 190 106 Q 194 106 194 110 L 194 127 Q 194 131 190 131 L 86 131 Q 82 131 82 127 L 82 110 Q 82 106 86 106 Z"/></g><g><path fill="none" stroke="#000000" paint-order="fill stroke markers" d=" M 86 106 L 190 106 Q 194 106 194 110 L 194 127 Q 194 131 190 131 L 86 131 Q 82 131 82 127 L 82 110 Q 82 106 86 106 Z" stroke-miterlimit="10" stroke-dasharray=""/></g><g><path fill="none" stroke="#000000" paint-order="fill stroke markers" d=" M 186 117 L 183 121" stroke-miterlimit="10" stroke-dasharray=""/></g><g><path fill="none" stroke="#000000" paint-order="fill stroke markers" d=" M 183 121 L 180 117" stroke-miterlimit="10" stroke-dasharray=""/></g><g><g><path fill="none" stroke="none"/><text fill="#000000" stroke="none" font-family="Arial" font-size="13px" font-style="normal" font-weight="normal" text-decoration="undefined" x="224" y="324.5" text-anchor="start" dominant-baseline="central" transform="matrix(1 0 0 1 -134 -206)">Terra</text></g></g><g><rect fill="#ffffff" stroke="none" x="368" y="328" width="56" height="72" transform="matrix(1 0 0 1 -134 -206)"/></g><g><path fill="none" stroke="#000000" paint-order="fill stroke markers" d=" M 234 122 L 290 122 L 290 194 L 234 194 L 234 122 Z Z" stroke-miterlimit="10" stroke-dasharray=""/></g><g><rect fill="#ffffff" stroke="none" x="384" y="352" width="16" height="16" transform="matrix(1 0 0 1 -134 -206)"/></g><g><path fill="none" stroke="#000000" paint-order="fill stroke markers" d=" M 250 146 L 266 146 L 266 162 L 250 162 L 250 146 Z Z" stroke-miterlimit="10" stroke-dasharray=""/></g><g><path fill="none" stroke="#000000" paint-order="fill stroke markers" d=" M 250 146 L 266 162" stroke-miterlimit="10" stroke-dasharray=""/></g><g><path fill="none" stroke="#000000" paint-order="fill stroke markers" d=" M 266 146 L 250 162" stroke-miterlimit="10" stroke-dasharray=""/></g><g><path fill="#ffffff" stroke="none" paint-order="stroke fill markers" d=" M 290 54 C 290 47.3725824 295.3725824 42 302 42 C 308.6274176 42 314 47.3725824 314 54 C 314 60.6274176 308.6274176 66 302 66 C 295.3725824 66 290 60.6274176 290 54 Z"/></g><g><path fill="none" stroke="#000000" paint-order="fill stroke markers" d=" M 290 54 C 290 47.3725824 295.3725824 42 302 42 C 308.6274176 42 314 47.3725824 314 54 C 314 60.6274176 308.6274176 66 302 66 C 295.3725824 66 290 60.6274176 290 54 Z" stroke-miterlimit="10" stroke-dasharray=""/></g><g><path fill="none" stroke="#000000" paint-order="fill stroke markers" d=" M 298.4 50.39999999999998 C 298.4 48.41177471999998 300.01177472 46.80000000000001 302 46.80000000000001 C 303.98822528 46.80000000000001 305.6 48.41177471999998 305.6 50.39999999999998 C 305.6 52.38822527999997 303.98822528 54 302 54 C 300.01177472 54 298.4 52.38822527999997 298.4 50.39999999999998 Z" stroke-miterlimit="10" stroke-dasharray=""/></g><g><path fill="none" stroke="#000000" paint-order="fill stroke markers" d=" M 300.6 54 L 303.4 54 Q 307.4 54 307.4 58 L 307.4 61.19999999999999 Q 307.4 61.19999999999999 307.4 61.19999999999999 L 296.6 61.19999999999999 Q 296.6 61.19999999999999 296.6 61.19999999999999 L 296.6 58 Q 296.6 54 300.6 54 Z" stroke-miterlimit="10" stroke-dasharray=""/></g><g><path fill="none" stroke="#000000" paint-order="fill stroke markers" d=" M 140 190 L 152 190 Q 154 190 154 192 L 154 192 Q 154 194 152 194 L 140 194 Q 138 194 138 192 L 138 192 Q 138 190 140 190 Z" stroke-miterlimit="10" stroke-dasharray=""/></g><g><path fill="#ffffff" stroke="none" paint-order="stroke fill markers" d=" M 138 192 C 138 188.68629120000003 140.68629120000003 186 144 186 C 147.31370879999997 186 150 188.68629120000003 150 192 C 150 195.31370879999997 147.31370879999997 198 144 198 C 140.68629120000003 198 138 195.31370879999997 138 192 Z"/></g><g><path fill="none" stroke="#000000" paint-order="fill stroke markers" d=" M 138 192 C 138 188.68629120000003 140.68629120000003 186 144 186 C 147.31370879999997 186 150 188.68629120000003 150 192 C 150 195.31370879999997 147.31370879999997 198 144 198 C 140.68629120000003 198 138 195.31370879999997 138 192 Z" stroke-miterlimit="10" stroke-dasharray=""/></g><g><rect fill="#ffffff" stroke="none" x="200" y="392" width="16" height="16" transform="matrix(1 0 0 1 -134 -206)"/></g><g><path fill="none" stroke="#000000" paint-order="fill stroke markers" d=" M 66 186 L 82 186 L 82 202 L 66 202 L 66 186 Z Z" stroke-miterlimit="10" stroke-dasharray=""/></g><g><path fill="#ffffff" stroke="none" paint-order="stroke fill markers" d=" M 86 74 L 190 74 Q 194 74 194 78 L 194 94 Q 194 98 190 98 L 86 98 Q 82 98 82 94 L 82 78 Q 82 74 86 74 Z"/></g><g><path fill="none" stroke="#000000" paint-order="fill stroke markers" d=" M 86 74 L 190 74 Q 194 74 194 78 L 194 94 Q 194 98 190 98 L 86 98 Q 82 98 82 94 L 82 78 Q 82 74 86 74 Z" stroke-miterlimit="10" stroke-dasharray=""/></g><g><g><path fill="none" stroke="none"/></g></g><g><path fill="none" stroke="#000000" paint-order="fill stroke markers" d=" M 93 242 L 101 242 Q 104 242 104 245 L 104 253 Q 104 256 101 256 L 93 256 Q 90 256 90 253 L 90 245 Q 90 242 93 242 Z" stroke-miterlimit="10" stroke-dasharray=""/></g><g><g><path fill="none" stroke="none"/><text fill="#000000" stroke="none" font-family="Arial" font-size="13px" font-style="normal" font-weight="normal" text-decoration="undefined" x="242" y="456.5" text-anchor="start" dominant-baseline="central" transform="matrix(1 0 0 1 -134 -206)">Checkbox1</text></g></g><g><path fill="#ffffff" stroke="none" paint-order="stroke fill markers" d=" M 342 154 L 378.18994140625 154 Q 382.18994140625 154 382.18994140625 158 L 382.18994140625 179 Q 382.18994140625 179 382.18994140625 179 L 338 179 Q 338 179 338 179 L 338 158 Q 338 154 342 154 Z"/></g><g><path fill="none" stroke="#000000" paint-order="fill stroke markers" d=" M 342 154 L 378.18994140625 154 Q 382.18994140625 154 382.18994140625 158 L 382.18994140625 179 Q 382.18994140625 179 382.18994140625 179 L 338 179 Q 338 179 338 179 L 338 158 Q 338 154 342 154 Z" stroke-miterlimit="10" stroke-dasharray=""/></g><g><g><path fill="none" stroke="none"/><text fill="#000000" stroke="none" font-family="Arial" font-size="13px" font-style="normal" font-weight="normal" text-decoration="undefined" x="480" y="374.5" text-anchor="start" dominant-baseline="central" transform="matrix(1 0 0 1 -134 -206)">Tab1</text></g></g><g><path fill="#ffffff" stroke="none" paint-order="stroke fill markers" d=" M 390 154 L 426.18994140625 154 Q 430.18994140625 154 430.18994140625 158 L 430.18994140625 179 Q 430.18994140625 179 430.18994140625 179 L 386 179 Q 386 179 386 179 L 386 158 Q 386 154 390 154 Z"/></g><g><path fill="none" stroke="#000000" paint-order="fill stroke markers" d=" M 390 154 L 426.18994140625 154 Q 430.18994140625 154 430.18994140625 158 L 430.18994140625 179 Q 430.18994140625 179 430.18994140625 179 L 386 179 Q 386 179 386 179 L 386 158 Q 386 154 390 154 Z" stroke-miterlimit="10" stroke-dasharray=""/></g><g><g><path fill="none" stroke="none"/><text fill="#000000" stroke="none" font-family="Arial" font-size="13px" font-style="normal" font-weight="normal" text-decoration="undefined" x="528" y="374.5" text-anchor="start" dominant-baseline="central" transform="matrix(1 0 0 1 -134 -206)">Tab2</text></g></g><g><path fill="none" stroke="#000000" paint-order="fill stroke markers" d=" M 314 182 L 466 182" stroke-miterlimit="10" stroke-dasharray=""/></g></g></svg>