<svg version="1.1" xmlns="http://www.w3.org/2000/svg" xmlns:xlink="http://www.w3.org/1999/xlink" width="391.4990234375" height="240"><defs/><g><g><path fill="#C0C0C0" stroke="none" paint-order="stroke fill markers" d=" M 27 17 L 88.51904296875 17 Q 98.51904296875 17 98.51904296875 27 L 98.51904296875 30 Q 98.51904296875 40 88.51904296875 40 L 27 40 Q 17 40 17 30 L 17 27 Q 17 17 27 17 Z" fill-opacity="0.2"/></g><g><path fill="#ffffff" stroke="none" paint-order="stroke fill markers" d=" M 20 10 L 81.51904296875 10 Q 91.51904296875 10 91.51904296875 20 L 91.51904296875 23 Q 91.51904296875 33 81.51904296875 33 L 20 33 Q 10 33 10 23 L 10 20 Q 10 10 20 10 Z"/></g><g><path fill="none" stroke="#000000" paint-order="fill stroke markers" d=" M 20 10 L 81.51904296875 10 Q 91.51904296875 10 91.51904296875 20 L 91.51904296875 23 Q 91.51904296875 33 81.51904296875 33 L 20 33 Q 10 33 10 23 L 10 20 Q 10 10 20 10 Z" stroke-miterlimit="10" stroke-dasharray=""/></g><g><g><path fill="none" stroke="none"/><text fill="#000000" stroke="none" font-family="Arial" font-size="13px" font-style="normal" font-weight="normal" text-decoration="undefined" x="144.759521484375" y="123.5" text-anchor="middle" dominant-baseline="central" transform="matrix(1 0 0 1 -94 -102)">BPMNTask1</text></g></g><g><path fill="#C0C0C0" stroke="none" paint-order="stroke fill markers" d=" M 297 113 L 313 97 L 329 113 L 313 129 L 297 113" fill-opacity="0.2"/></g><g><path fill="#ffffff" stroke="none" paint-order="stroke fill markers" d=" M 290 106 L 306 90 L 322 106 L 306 122 L 290 106"/></g><g><path fill="none" stroke="#000000" paint-order="fill stroke markers" d=" M 290 106 L 306 90 L 322 106 L 306 122 L 290 106 L 290 106" stroke-miterlimit="10" stroke-dasharray=""/></g><g><rect fill="#ffffff" stroke="none" x="324.5009765625" y="237.5" width="150.998046875" height="13" transform="matrix(1 0 0 1 -94 -102)"/></g><g><g><path fill="none" stroke="none"/><text fill="#000000" stroke="none" font-family="Arial" font-size="13px" font-style="normal" font-weight="normal" text-decoration="undefined" x="400" y="244" text-anchor="middle" dominant-baseline="central" transform="matrix(1 0 0 1 -94 -102)">BPMNExclusiveGateway1</text></g></g><g><g><path fill="none" stroke="none"/><text fill="#000000" stroke="none" font-family="Arial" font-size="13px" font-style="normal" font-weight="normal" text-decoration="undefined" x="389" y="299" text-anchor="start" dominant-baseline="text-before-edge" transform="matrix(1 0 0 1 -94 -102)">Text</text><text fill="#000000" stroke="none" font-family="Arial" font-size="13px" font-style="normal" font-weight="normal" text-decoration="undefined" x="389" y="312" text-anchor="start" dominant-baseline="text-before-edge" transform="matrix(1 0 0 1 -94 -102)">annotation</text></g></g><g><path fill="none" stroke="#000000" paint-order="fill stroke markers" d=" M 300 192 L 290 192 L 290 230 L 300 230" stroke-miterlimit="10" stroke-dasharray=""/></g><g><path fill="none" stroke="#000000" paint-order="fill stroke markers" d=" M 321 191 L 309 123" stroke-miterlimit="10" stroke-dasharray="3"/></g></g></svg>