<svg version="1.1" xmlns="http://www.w3.org/2000/svg" xmlns:xlink="http://www.w3.org/1999/xlink" width="788" height="649"><defs/><g><g><path fill="#C0C0C0" stroke="none" paint-order="stroke fill markers" d=" M 178.4599609375 45.5 C 178.4599609375 34.17816160000001 187.6381225375 25 198.9599609375 25 C 210.2817993375 25 219.4599609375 34.17816160000001 219.4599609375 45.5 C 219.4599609375 56.82183839999999 210.2817993375 66 198.9599609375 66 C 187.6381225375 66 178.4599609375 56.82183839999999 178.4599609375 45.5 Z" fill-opacity="0.2"/></g><g><path fill="#C0C0C0" stroke="none" paint-order="stroke fill markers" d=" M 143 74 L 254.919921875 74 Q 260.919921875 74 260.919921875 80 L 260.919921875 148 Q 260.919921875 154 254.919921875 154 L 143 154 Q 137 154 137 148 L 137 80 Q 137 74 143 74 Z" fill-opacity="0.2"/></g><g><path fill="#38bcff" stroke="none" paint-order="stroke fill markers" d=" M 171.4599609375 38.5 C 171.4599609375 27.17816160000001 180.6381225375 18 191.9599609375 18 C 203.2817993375 18 212.4599609375 27.17816160000001 212.4599609375 38.5 C 212.4599609375 49.82183839999999 203.2817993375 59 191.9599609375 59 C 180.6381225375 59 171.4599609375 49.82183839999999 171.4599609375 38.5 Z"/></g><g><path fill="none" stroke="#000000" paint-order="fill stroke markers" d=" M 171.4599609375 38.5 C 171.4599609375 27.17816160000001 180.6381225375 18 191.9599609375 18 C 203.2817993375 18 212.4599609375 27.17816160000001 212.4599609375 38.5 C 212.4599609375 49.82183839999999 203.2817993375 59 191.9599609375 59 C 180.6381225375 59 171.4599609375 49.82183839999999 171.4599609375 38.5 Z" stroke-miterlimit="10" stroke-dasharray=""/></g><g><path fill="#38bcff" stroke="none" paint-order="stroke fill markers" d=" M 136 67 L 247.919921875 67 Q 253.919921875 67 253.919921875 73 L 253.919921875 141 Q 253.919921875 147 247.919921875 147 L 136 147 Q 130 147 130 141 L 130 73 Q 130 67 136 67 Z"/></g><g><path fill="none" stroke="#000000" paint-order="fill stroke markers" d=" M 136 67 L 247.919921875 67 Q 253.919921875 67 253.919921875 73 L 253.919921875 141 Q 253.919921875 147 247.919921875 147 L 136 147 Q 130 147 130 141 L 130 73 Q 130 67 136 67 Z" stroke-miterlimit="10" stroke-dasharray=""/></g><g><g><path fill="none" stroke="none"/><text fill="#000000" stroke="none" font-family="Arial" font-size="13px" font-style="normal" font-weight="bold" text-decoration="undefined" x="205.9599609375" y="279.5" text-anchor="middle" dominant-baseline="central" transform="matrix(1 0 0 1 -14 -198)">Munícipe</text></g></g><g><g><path fill="none" stroke="none"/><text fill="#000000" stroke="none" font-family="Arial" font-size="13px" font-style="normal" font-weight="normal" text-decoration="undefined" x="205.9599609375" y="294.5" text-anchor="middle" dominant-baseline="central" transform="matrix(1 0 0 1 -14 -198)">[Person]</text></g></g><g><g><path fill="none" stroke="none"/><text fill="#000000" stroke="none" font-family="Arial" font-size="13px" font-style="normal" font-weight="normal" text-decoration="undefined" x="205.9599609375" y="317.5" text-anchor="middle" dominant-baseline="central" transform="matrix(1 0 0 1 -14 -198)">Cidadão regular</text></g></g><g><path fill="#C0C0C0" stroke="none" paint-order="stroke fill markers" d=" M 374.5 43.5 C 374.5 28.86445280000001 386.3644528 17 401 17 C 415.6355472 17 427.5 28.86445280000001 427.5 43.5 C 427.5 58.13554720000002 415.6355472 70 401 70 C 386.3644528 70 374.5 58.13554720000002 374.5 43.5 Z" fill-opacity="0.2"/></g><g><path fill="#C0C0C0" stroke="none" paint-order="stroke fill markers" d=" M 327 78 L 475 78 Q 481 78 481 84 L 481 152 Q 481 158 475 158 L 327 158 Q 321 158 321 152 L 321 84 Q 321 78 327 78 Z" fill-opacity="0.2"/></g><g><path fill="#38bcff" stroke="none" paint-order="stroke fill markers" d=" M 367.5 36.5 C 367.5 21.86445280000001 379.3644528 10 394 10 C 408.6355472 10 420.5 21.86445280000001 420.5 36.5 C 420.5 51.13554719999999 408.6355472 63 394 63 C 379.3644528 63 367.5 51.13554719999999 367.5 36.5 Z"/></g><g><path fill="none" stroke="#000000" paint-order="fill stroke markers" d=" M 367.5 36.5 C 367.5 21.86445280000001 379.3644528 10 394 10 C 408.6355472 10 420.5 21.86445280000001 420.5 36.5 C 420.5 51.13554719999999 408.6355472 63 394 63 C 379.3644528 63 367.5 51.13554719999999 367.5 36.5 Z" stroke-miterlimit="10" stroke-dasharray=""/></g><g><path fill="#38bcff" stroke="none" paint-order="stroke fill markers" d=" M 320 71 L 468 71 Q 474 71 474 77 L 474 145 Q 474 151 468 151 L 320 151 Q 314 151 314 145 L 314 77 Q 314 71 320 71 Z"/></g><g><path fill="none" stroke="#000000" paint-order="fill stroke markers" d=" M 320 71 L 468 71 Q 474 71 474 77 L 474 145 Q 474 151 468 151 L 320 151 Q 314 151 314 145 L 314 77 Q 314 71 320 71 Z" stroke-miterlimit="10" stroke-dasharray=""/></g><g><g><path fill="none" stroke="none"/><text fill="#000000" stroke="none" font-family="Arial" font-size="13px" font-style="normal" font-weight="bold" text-decoration="undefined" x="408" y="283.5" text-anchor="middle" dominant-baseline="central" transform="matrix(1 0 0 1 -14 -198)">Autoridades</text></g></g><g><g><path fill="none" stroke="none"/><text fill="#000000" stroke="none" font-family="Arial" font-size="13px" font-style="normal" font-weight="normal" text-decoration="undefined" x="408" y="298.5" text-anchor="middle" dominant-baseline="central" transform="matrix(1 0 0 1 -14 -198)">[Person]</text></g></g><g><g><path fill="none" stroke="none"/><text fill="#000000" stroke="none" font-family="Arial" font-size="13px" font-style="normal" font-weight="normal" text-decoration="undefined" x="408" y="321.5" text-anchor="middle" dominant-baseline="central" transform="matrix(1 0 0 1 -14 -198)">Ministério Público, corpo</text><text fill="#000000" stroke="none" font-family="Arial" font-size="13px" font-style="normal" font-weight="normal" text-decoration="undefined" x="408" y="334.5" text-anchor="middle" dominant-baseline="central" transform="matrix(1 0 0 1 -14 -198)">mandatário, etc.</text></g></g><g><path fill="#C0C0C0" stroke="none" paint-order="stroke fill markers" d=" M 574.5 51.5 C 574.5 41.2827312 582.7827312 33 593 33 C 603.2172688 33 611.5 41.2827312 611.5 51.5 C 611.5 61.7172688 603.2172688 70 593 70 C 582.7827312 70 574.5 61.7172688 574.5 51.5 Z" fill-opacity="0.2"/></g><g><path fill="#C0C0C0" stroke="none" paint-order="stroke fill markers" d=" M 543 78 L 643 78 Q 649 78 649 84 L 649 152 Q 649 158 643 158 L 543 158 Q 537 158 537 152 L 537 84 Q 537 78 543 78 Z" fill-opacity="0.2"/></g><g><path fill="#38bcff" stroke="none" paint-order="stroke fill markers" d=" M 567.5 44.5 C 567.5 34.2827312 575.7827312 26 586 26 C 596.2172688 26 604.5 34.2827312 604.5 44.5 C 604.5 54.7172688 596.2172688 63 586 63 C 575.7827312 63 567.5 54.7172688 567.5 44.5 Z"/></g><g><path fill="none" stroke="#000000" paint-order="fill stroke markers" d=" M 567.5 44.5 C 567.5 34.2827312 575.7827312 26 586 26 C 596.2172688 26 604.5 34.2827312 604.5 44.5 C 604.5 54.7172688 596.2172688 63 586 63 C 575.7827312 63 567.5 54.7172688 567.5 44.5 Z" stroke-miterlimit="10" stroke-dasharray=""/></g><g><path fill="#38bcff" stroke="none" paint-order="stroke fill markers" d=" M 536 71 L 636 71 Q 642 71 642 77 L 642 145 Q 642 151 636 151 L 536 151 Q 530 151 530 145 L 530 77 Q 530 71 536 71 Z"/></g><g><path fill="none" stroke="#000000" paint-order="fill stroke markers" d=" M 536 71 L 636 71 Q 642 71 642 77 L 642 145 Q 642 151 636 151 L 536 151 Q 530 151 530 145 L 530 77 Q 530 71 536 71 Z" stroke-miterlimit="10" stroke-dasharray=""/></g><g><g><path fill="none" stroke="none"/><text fill="#000000" stroke="none" font-family="Arial" font-size="13px" font-style="normal" font-weight="bold" text-decoration="undefined" x="600" y="283.5" text-anchor="middle" dominant-baseline="central" transform="matrix(1 0 0 1 -14 -198)">Entidades</text></g></g><g><g><path fill="none" stroke="none"/><text fill="#000000" stroke="none" font-family="Arial" font-size="13px" font-style="normal" font-weight="normal" text-decoration="undefined" x="600" y="298.5" text-anchor="middle" dominant-baseline="central" transform="matrix(1 0 0 1 -14 -198)">[Person]</text></g></g><g><g><path fill="none" stroke="none"/><text fill="#000000" stroke="none" font-family="Arial" font-size="13px" font-style="normal" font-weight="normal" text-decoration="undefined" x="600" y="321.5" text-anchor="middle" dominant-baseline="central" transform="matrix(1 0 0 1 -14 -198)">FUSP, ONG,</text><text fill="#000000" stroke="none" font-family="Arial" font-size="13px" font-style="normal" font-weight="normal" text-decoration="undefined" x="600" y="334.5" text-anchor="middle" dominant-baseline="central" transform="matrix(1 0 0 1 -14 -198)">etc.</text></g></g><g><path fill="#C0C0C0" stroke="none" paint-order="stroke fill markers" d=" M 303 281 L 491 281 Q 497 281 497 287 L 497 407 Q 497 413 491 413 L 303 413 Q 297 413 297 407 L 297 287 Q 297 281 303 281 Z" fill-opacity="0.2"/></g><g><path fill="#FFADAD" stroke="none" paint-order="stroke fill markers" d=" M 296 274 L 484 274 Q 490 274 490 280 L 490 400 Q 490 406 484 406 L 296 406 Q 290 406 290 400 L 290 280 Q 290 274 296 274 Z"/></g><g><path fill="none" stroke="#000000" paint-order="fill stroke markers" d=" M 296 274 L 484 274 Q 490 274 490 280 L 490 400 Q 490 406 484 406 L 296 406 Q 290 406 290 400 L 290 280 Q 290 274 296 274 Z" stroke-miterlimit="10" stroke-dasharray=""/></g><g><g><path fill="none" stroke="none"/><text fill="#000000" stroke="none" font-family="Arial" font-size="13px" font-style="normal" font-weight="bold" text-decoration="undefined" x="404" y="486.5" text-anchor="middle" dominant-baseline="central" transform="matrix(1 0 0 1 -14 -198)">SISPEUC</text></g></g><g><g><path fill="none" stroke="none"/><text fill="#000000" stroke="none" font-family="Arial" font-size="13px" font-style="normal" font-weight="normal" text-decoration="undefined" x="404" y="501.5" text-anchor="middle" dominant-baseline="central" transform="matrix(1 0 0 1 -14 -198)">[Software System: Nest.js /</text><text fill="#000000" stroke="none" font-family="Arial" font-size="13px" font-style="normal" font-weight="normal" text-decoration="undefined" x="404" y="514.5" text-anchor="middle" dominant-baseline="central" transform="matrix(1 0 0 1 -14 -198)">Next.js / React Native / Prisma</text><text fill="#000000" stroke="none" font-family="Arial" font-size="13px" font-style="normal" font-weight="normal" text-decoration="undefined" x="404" y="527.5" text-anchor="middle" dominant-baseline="central" transform="matrix(1 0 0 1 -14 -198)">ORM / PostgreSQL]</text></g></g><g><g><path fill="none" stroke="none"/><text fill="#000000" stroke="none" font-family="Arial" font-size="13px" font-style="normal" font-weight="normal" text-decoration="undefined" x="404" y="550.5" text-anchor="middle" dominant-baseline="central" transform="matrix(1 0 0 1 -14 -198)">Recebe denúncias, registra,</text><text fill="#000000" stroke="none" font-family="Arial" font-size="13px" font-style="normal" font-weight="normal" text-decoration="undefined" x="404" y="563.5" text-anchor="middle" dominant-baseline="central" transform="matrix(1 0 0 1 -14 -198)">processa, gerencia, monitora e</text><text fill="#000000" stroke="none" font-family="Arial" font-size="13px" font-style="normal" font-weight="normal" text-decoration="undefined" x="404" y="576.5" text-anchor="middle" dominant-baseline="central" transform="matrix(1 0 0 1 -14 -198)">reporta a aplicação da PEUC</text></g></g><g><path fill="none" stroke="#000000" paint-order="fill stroke markers" d=" M 242 148 L 338 273" stroke-miterlimit="10" stroke-dasharray="3"/></g><g><path fill="#000000" stroke="none" paint-order="stroke fill markers" d=" M 328.47139236877905 267.5040345151886 L 338 273 L 335.1484913921751 262.37602246522044"/></g><g><path fill="none" stroke="#000000" paint-order="fill stroke markers" d=" M 328.47139236877905 267.5040345151886 L 338 273 L 335.1484913921751 262.37602246522044 L 328.47139236877905 267.5040345151886" stroke-miterlimit="10" stroke-dasharray=""/></g><g><rect fill="#ffffff" stroke="none" x="279" y="379" width="72.9853515625" height="39" transform="matrix(1 0 0 1 -14 -198)"/></g><g><g><path fill="none" stroke="none"/><text fill="#000000" stroke="none" font-family="Arial" font-size="13px" font-style="normal" font-weight="normal" text-decoration="undefined" x="315.49267578125" y="385.5" text-anchor="middle" dominant-baseline="central" transform="matrix(1 0 0 1 -14 -198)">Denúncia</text><text fill="#000000" stroke="none" font-family="Arial" font-size="13px" font-style="normal" font-weight="normal" text-decoration="undefined" x="315.49267578125" y="398.5" text-anchor="middle" dominant-baseline="central" transform="matrix(1 0 0 1 -14 -198)">Mapa</text><text fill="#000000" stroke="none" font-family="Arial" font-size="13px" font-style="normal" font-weight="normal" text-decoration="undefined" x="315.49267578125" y="411.5" text-anchor="middle" dominant-baseline="central" transform="matrix(1 0 0 1 -14 -198)">Colaborativo</text></g></g><g><path fill="none" stroke="#000000" paint-order="fill stroke markers" d=" M 393 152 L 391 273" stroke-miterlimit="10" stroke-dasharray="3"/></g><g><path fill="#000000" stroke="none" paint-order="stroke fill markers" d=" M 386.95901231289906 262.76914380353736 L 391 273 L 395.37689799762273 262.9082824098964"/></g><g><path fill="none" stroke="#000000" paint-order="fill stroke markers" d=" M 386.95901231289906 262.76914380353736 L 391 273 L 395.37689799762273 262.9082824098964 L 386.95901231289906 262.76914380353736" stroke-miterlimit="10" stroke-dasharray=""/></g><g><rect fill="#ffffff" stroke="none" x="393" y="397" width="54.92626953125" height="26" transform="matrix(1 0 0 1 -14 -198)"/></g><g><g><path fill="none" stroke="none"/><text fill="#000000" stroke="none" font-family="Arial" font-size="13px" font-style="normal" font-weight="normal" text-decoration="undefined" x="420.463134765625" y="403.5" text-anchor="middle" dominant-baseline="central" transform="matrix(1 0 0 1 -14 -198)">Denúncia</text><text fill="#000000" stroke="none" font-family="Arial" font-size="13px" font-style="normal" font-weight="normal" text-decoration="undefined" x="420.463134765625" y="416.5" text-anchor="middle" dominant-baseline="central" transform="matrix(1 0 0 1 -14 -198)">E-mail</text></g></g><g><path fill="none" stroke="#000000" paint-order="fill stroke markers" d=" M 536 152 L 442 273" stroke-miterlimit="10" stroke-dasharray="3"/></g><g><path fill="#000000" stroke="none" paint-order="stroke fill markers" d=" M 444.910415021249 262.3920084651199 L 442 273 L 451.55895694667555 267.5569914485091"/></g><g><path fill="none" stroke="#000000" paint-order="fill stroke markers" d=" M 444.910415021249 262.3920084651199 L 442 273 L 451.55895694667555 267.5569914485091 L 444.910415021249 262.3920084651199" stroke-miterlimit="10" stroke-dasharray=""/></g><g><rect fill="#ffffff" stroke="none" x="480" y="406" width="68.64990234375" height="26" transform="matrix(1 0 0 1 -14 -198)"/></g><g><g><path fill="none" stroke="none"/><text fill="#000000" stroke="none" font-family="Arial" font-size="13px" font-style="normal" font-weight="normal" text-decoration="undefined" x="514.324951171875" y="412.5" text-anchor="middle" dominant-baseline="central" transform="matrix(1 0 0 1 -14 -198)">Prospecção</text><text fill="#000000" stroke="none" font-family="Arial" font-size="13px" font-style="normal" font-weight="normal" text-decoration="undefined" x="514.324951171875" y="425.5" text-anchor="middle" dominant-baseline="central" transform="matrix(1 0 0 1 -14 -198)">Ativa</text></g></g><g><path fill="#C0C0C0" stroke="none" paint-order="stroke fill markers" d=" M 23 553 L 211 553 Q 217 553 217 559 L 217 640 Q 217 646 211 646 L 23 646 Q 17 646 17 640 L 17 559 Q 17 553 23 553 Z" fill-opacity="0.2"/></g><g><path fill="#FFD6AD" stroke="none" paint-order="stroke fill markers" d=" M 16 546 L 204 546 Q 210 546 210 552 L 210 633 Q 210 639 204 639 L 16 639 Q 10 639 10 633 L 10 552 Q 10 546 16 546 Z"/></g><g><path fill="none" stroke="#000000" paint-order="fill stroke markers" d=" M 16 546 L 204 546 Q 210 546 210 552 L 210 633 Q 210 639 204 639 L 16 639 Q 10 639 10 633 L 10 552 Q 10 546 16 546 Z" stroke-miterlimit="10" stroke-dasharray=""/></g><g><g><path fill="none" stroke="none"/><text fill="#000000" stroke="none" font-family="Arial" font-size="13px" font-style="normal" font-weight="bold" text-decoration="undefined" x="124" y="758.5" text-anchor="middle" dominant-baseline="central" transform="matrix(1 0 0 1 -14 -198)">Serviços pré-existentes</text><text fill="#000000" stroke="none" font-family="Arial" font-size="13px" font-style="normal" font-weight="bold" text-decoration="undefined" x="124" y="771.5" text-anchor="middle" dominant-baseline="central" transform="matrix(1 0 0 1 -14 -198)">externos</text></g></g><g><g><path fill="none" stroke="none"/><text fill="#000000" stroke="none" font-family="Arial" font-size="13px" font-style="normal" font-weight="normal" text-decoration="undefined" x="124" y="786.5" text-anchor="middle" dominant-baseline="central" transform="matrix(1 0 0 1 -14 -198)">[Software System: E-mail</text><text fill="#000000" stroke="none" font-family="Arial" font-size="13px" font-style="normal" font-weight="normal" text-decoration="undefined" x="124" y="799.5" text-anchor="middle" dominant-baseline="central" transform="matrix(1 0 0 1 -14 -198)">System / Data Store /</text><text fill="#000000" stroke="none" font-family="Arial" font-size="13px" font-style="normal" font-weight="normal" text-decoration="undefined" x="124" y="812.5" text-anchor="middle" dominant-baseline="central" transform="matrix(1 0 0 1 -14 -198)">Autenticação LDAP]</text></g></g><g><g><path fill="none" stroke="none"/></g></g><g><path fill="#C0C0C0" stroke="none" paint-order="stroke fill markers" d=" M 591 569 L 779 569 Q 785 569 785 575 L 785 630 Q 785 636 779 636 L 591 636 Q 585 636 585 630 L 585 575 Q 585 569 591 569 Z" fill-opacity="0.2"/></g><g><path fill="#FFD6AD" stroke="none" paint-order="stroke fill markers" d=" M 584 562 L 772 562 Q 778 562 778 568 L 778 623 Q 778 629 772 629 L 584 629 Q 578 629 578 623 L 578 568 Q 578 562 584 562 Z"/></g><g><path fill="none" stroke="#000000" paint-order="fill stroke markers" d=" M 584 562 L 772 562 Q 778 562 778 568 L 778 623 Q 778 629 772 629 L 584 629 Q 578 629 578 623 L 578 568 Q 578 562 584 562 Z" stroke-miterlimit="10" stroke-dasharray=""/></g><g><g><path fill="none" stroke="none"/><text fill="#000000" stroke="none" font-family="Arial" font-size="13px" font-style="normal" font-weight="bold" text-decoration="undefined" x="692" y="774.5" text-anchor="middle" dominant-baseline="central" transform="matrix(1 0 0 1 -14 -198)">Aplicações desejáveis</text></g></g><g><g><path fill="none" stroke="none"/><text fill="#000000" stroke="none" font-family="Arial" font-size="13px" font-style="normal" font-weight="normal" text-decoration="undefined" x="692" y="789.5" text-anchor="middle" dominant-baseline="central" transform="matrix(1 0 0 1 -14 -198)">[Software System: Apache Solr</text><text fill="#000000" stroke="none" font-family="Arial" font-size="13px" font-style="normal" font-weight="normal" text-decoration="undefined" x="692" y="802.5" text-anchor="middle" dominant-baseline="central" transform="matrix(1 0 0 1 -14 -198)">/ Arcgis Online ou Enterprise]</text></g></g><g><g><path fill="none" stroke="none"/></g></g><g><path fill="#C0C0C0" stroke="none" paint-order="stroke fill markers" d=" M 303 561 L 491 561 Q 497 561 497 567 L 497 635 Q 497 641 491 641 L 303 641 Q 297 641 297 635 L 297 567 Q 297 561 303 561 Z" fill-opacity="0.2"/></g><g><path fill="#FFFF49" stroke="none" paint-order="stroke fill markers" d=" M 296 554 L 484 554 Q 490 554 490 560 L 490 628 Q 490 634 484 634 L 296 634 Q 290 634 290 628 L 290 560 Q 290 554 296 554 Z"/></g><g><path fill="none" stroke="#000000" paint-order="fill stroke markers" d=" M 296 554 L 484 554 Q 490 554 490 560 L 490 628 Q 490 634 484 634 L 296 634 Q 290 634 290 628 L 290 560 Q 290 554 296 554 Z" stroke-miterlimit="10" stroke-dasharray=""/></g><g><g><path fill="none" stroke="none"/><text fill="#000000" stroke="none" font-family="Arial" font-size="13px" font-style="normal" font-weight="bold" text-decoration="undefined" x="404" y="766.5" text-anchor="middle" dominant-baseline="central" transform="matrix(1 0 0 1 -14 -198)">Integrações desejáveis:</text><text fill="#000000" stroke="none" font-family="Arial" font-size="13px" font-style="normal" font-weight="bold" text-decoration="undefined" x="404" y="779.5" text-anchor="middle" dominant-baseline="central" transform="matrix(1 0 0 1 -14 -198)">WebServices / API / ETL</text></g></g><g><g><path fill="none" stroke="none"/><text fill="#000000" stroke="none" font-family="Arial" font-size="13px" font-style="normal" font-weight="normal" text-decoration="undefined" x="404" y="794.5" text-anchor="middle" dominant-baseline="central" transform="matrix(1 0 0 1 -14 -198)">[Software System: SEI /</text><text fill="#000000" stroke="none" font-family="Arial" font-size="13px" font-style="normal" font-weight="normal" text-decoration="undefined" x="404" y="807.5" text-anchor="middle" dominant-baseline="central" transform="matrix(1 0 0 1 -14 -198)">GeoSampa / Projeto BI]</text></g></g><g><g><path fill="none" stroke="none"/></g></g><g><path fill="none" stroke="#000000" paint-order="fill stroke markers" d=" M 466 407 L 640 561" stroke-miterlimit="10" stroke-dasharray="3"/></g><g><path fill="#000000" stroke="none" paint-order="stroke fill markers" d=" M 629.599963091404 557.4168125502786 L 640 561 L 635.179759521302 551.1123672333808"/></g><g><path fill="none" stroke="#000000" paint-order="fill stroke markers" d=" M 629.599963091404 557.4168125502786 L 640 561 L 635.179759521302 551.1123672333808 L 629.599963091404 557.4168125502786" stroke-miterlimit="10" stroke-dasharray=""/></g><g><rect fill="#ffffff" stroke="none" x="536" y="624" width="125" height="52" transform="matrix(1 0 0 1 -14 -198)"/></g><g><g><path fill="none" stroke="none"/><text fill="#000000" stroke="none" font-family="Arial" font-size="13px" font-style="normal" font-weight="normal" text-decoration="undefined" x="598.5" y="630.5" text-anchor="middle" dominant-baseline="central" transform="matrix(1 0 0 1 -14 -198)">Replicação,</text><text fill="#000000" stroke="none" font-family="Arial" font-size="13px" font-style="normal" font-weight="normal" text-decoration="undefined" x="598.5" y="643.5" text-anchor="middle" dominant-baseline="central" transform="matrix(1 0 0 1 -14 -198)">indexação, full-binary</text><text fill="#000000" stroke="none" font-family="Arial" font-size="13px" font-style="normal" font-weight="normal" text-decoration="undefined" x="598.5" y="656.5" text-anchor="middle" dominant-baseline="central" transform="matrix(1 0 0 1 -14 -198)">search / Serviços</text><text fill="#000000" stroke="none" font-family="Arial" font-size="13px" font-style="normal" font-weight="normal" text-decoration="undefined" x="598.5" y="669.5" text-anchor="middle" dominant-baseline="central" transform="matrix(1 0 0 1 -14 -198)">geoespaciais</text></g></g><g><path fill="none" stroke="#000000" paint-order="fill stroke markers" d=" M 390 407 L 390 553" stroke-miterlimit="10" stroke-dasharray="3"/></g><g><path fill="#000000" stroke="none" paint-order="stroke fill markers" d=" M 385.790482243984 542.8373251423759 L 390 553 L 394.209517756016 542.8373251423759"/></g><g><path fill="none" stroke="#000000" paint-order="fill stroke markers" d=" M 385.790482243984 542.8373251423759 L 390 553 L 394.209517756016 542.8373251423759 L 385.790482243984 542.8373251423759" stroke-miterlimit="10" stroke-dasharray=""/></g><g><rect fill="#ffffff" stroke="none" x="349" y="664" width="139" height="26" transform="matrix(1 0 0 1 -14 -198)"/></g><g><g><path fill="none" stroke="none"/><text fill="#000000" stroke="none" font-family="Arial" font-size="13px" font-style="normal" font-weight="normal" text-decoration="undefined" x="418.5" y="670.5" text-anchor="middle" dominant-baseline="central" transform="matrix(1 0 0 1 -14 -198)">REST / SOAP / OGC /</text><text fill="#000000" stroke="none" font-family="Arial" font-size="13px" font-style="normal" font-weight="normal" text-decoration="undefined" x="418.5" y="683.5" text-anchor="middle" dominant-baseline="central" transform="matrix(1 0 0 1 -14 -198)">SDK para integrações</text></g></g><g><path fill="none" stroke="#000000" paint-order="fill stroke markers" d=" M 316 407 L 162 545" stroke-miterlimit="10" stroke-dasharray="3"/></g><g><path fill="#000000" stroke="none" paint-order="stroke fill markers" d=" M 166.75923734608529 535.0828602972617 L 162 545 L 172.3777657344737 541.3528122669127"/></g><g><path fill="none" stroke="#000000" paint-order="fill stroke markers" d=" M 166.75923734608529 535.0828602972617 L 162 545 L 172.3777657344737 541.3528122669127 L 166.75923734608529 535.0828602972617" stroke-miterlimit="10" stroke-dasharray=""/></g><g><g><path fill="none" stroke="none"/><text fill="#000000" stroke="none" font-family="Arial" font-size="13px" font-style="normal" font-weight="normal" text-decoration="undefined" x="157" y="629" text-anchor="start" dominant-baseline="text-before-edge" transform="matrix(1 0 0 1 -14 -198)">Disparo de e-mails /</text><text fill="#000000" stroke="none" font-family="Arial" font-size="13px" font-style="normal" font-weight="normal" text-decoration="undefined" x="157" y="642" text-anchor="start" dominant-baseline="text-before-edge" transform="matrix(1 0 0 1 -14 -198)">Arquivar binários /</text><text fill="#000000" stroke="none" font-family="Arial" font-size="13px" font-style="normal" font-weight="normal" text-decoration="undefined" x="157" y="655" text-anchor="start" dominant-baseline="text-before-edge" transform="matrix(1 0 0 1 -14 -198)">Autenticação</text></g></g></g></svg>